<?xml version="1.0" standalone="no"?>
<!DOCTYPE svg PUBLIC "-//W3C//DTD SVG 20010904//EN"
 "http://www.w3.org/TR/2001/REC-SVG-20010904/DTD/svg10.dtd">
<svg version="1.0" xmlns="http://www.w3.org/2000/svg"
 width="2000.000000pt" height="1827.000000pt" viewBox="0 0 2000.000000 1827.000000"
 preserveAspectRatio="xMidYMid meet">

<g transform="translate(0.000000,1827.000000) scale(0.100000,-0.100000)"
fill="#000000" stroke="none">
<path d="M10071 16599 c-25 -117 -171 -879 -171 -892 0 -16 -25 -1 -273 172
-135 94 -251 171 -257 171 -30 0 -5 -52 188 -395 166 -294 179 -322 203 -438
22 -106 43 -499 35 -642 -3 -49 -6 -756 -7 -1570 -2 -1323 -15 -2394 -29
-2409 -3 -2 -44 29 -90 71 -93 83 -416 375 -575 519 -181 165 -1066 964 -1270
1148 -110 99 -229 207 -265 240 -63 59 -727 659 -799 722 l-35 31 65 114 c36
63 153 265 259 449 449 778 589 1021 835 1450 250 435 266 465 254 469 -6 2
-572 -557 -1258 -1243 l-1246 -1246 85 -83 c84 -82 734 -702 1155 -1102 121
-115 501 -477 844 -805 344 -327 679 -647 746 -710 587 -559 915 -873 915
-879 0 -4 -37 -43 -82 -87 -46 -44 -231 -223 -413 -399 -181 -175 -397 -384
-480 -465 -82 -80 -289 -281 -460 -445 -170 -165 -368 -356 -440 -425 -381
-369 -464 -449 -615 -596 -91 -88 -354 -342 -585 -564 -231 -223 -482 -466
-558 -540 l-139 -136 379 -369 c208 -204 482 -471 608 -595 127 -124 320 -313
430 -420 231 -225 512 -500 805 -786 113 -110 306 -299 430 -420 124 -120 326
-318 450 -439 124 -121 416 -407 650 -635 234 -228 496 -485 583 -570 87 -85
162 -155 167 -155 5 0 105 95 222 210 117 116 299 293 403 394 105 102 278
270 385 375 107 105 364 355 570 556 206 200 467 454 580 565 310 302 553 540
1005 980 700 682 794 774 1005 981 113 111 235 231 273 265 l67 64 -187 180
c-184 175 -644 620 -953 920 -85 83 -285 277 -445 430 -159 154 -351 338 -425
411 -74 72 -484 467 -910 879 -426 411 -795 768 -820 792 l-45 44 96 92 c52
51 277 265 500 476 618 589 748 712 1099 1047 179 170 420 399 535 509 116
110 446 425 735 700 289 275 584 556 656 625 l132 125 -143 145 c-493 501
-2339 2350 -2346 2350 -20 0 -6 -41 42 -125 72 -127 294 -511 769 -1335 554
-960 580 -1005 580 -1018 0 -6 -67 -71 -148 -144 -142 -128 -666 -600 -1562
-1408 -234 -211 -624 -563 -868 -783 -244 -220 -445 -397 -448 -395 -17 17
-23 663 -24 2473 l-2 2060 25 96 c34 132 69 202 251 512 87 148 160 276 163
286 3 11 0 21 -5 25 -5 3 -128 -75 -272 -174 -144 -100 -265 -179 -267 -176
-3 3 -9 24 -14 48 -65 342 -172 882 -180 911 -7 26 -15 37 -28 37 -15 0 -22
-18 -40 -101z m630 -8114 c134 -121 266 -241 294 -266 87 -81 1388 -1261 2020
-1833 187 -170 346 -314 354 -321 11 -11 -11 -37 -130 -151 -79 -77 -207 -200
-284 -275 -77 -74 -320 -308 -540 -519 -220 -211 -454 -435 -520 -499 -66 -64
-176 -170 -245 -236 -69 -66 -237 -228 -375 -360 -137 -132 -373 -359 -525
-504 -151 -146 -292 -281 -314 -300 l-38 -36 6 1020 c4 561 8 1146 11 1300 3
154 7 786 10 1405 4 619 8 1184 10 1255 3 72 5 224 5 338 0 124 4 207 9 205 5
-1 119 -102 252 -223z m-943 183 c5 -7 12 -26 15 -43 8 -43 16 -614 22 -1615
3 -481 7 -1118 10 -1415 3 -297 8 -961 11 -1475 l6 -935 -98 95 c-55 52 -223
214 -374 359 -151 146 -331 319 -400 385 -69 67 -184 177 -255 246 -72 69
-242 234 -380 366 -137 132 -432 416 -655 630 -223 215 -496 478 -608 585
-111 106 -201 199 -200 205 2 6 336 314 743 684 771 702 822 748 1385 1256
190 171 437 394 550 497 113 102 208 186 211 187 4 0 11 -6 17 -12z"/>
</g>
</svg>
